<svg height="686" width="720" xmlns="http://www.w3.org/2000/svg">
<rect height="686" fill="#555" width="720"></rect>
<text fill="#7f7" font-family="Courier New" font-size="12" xml:space="preserve">
<tspan x="10" y="26">5 megabytes installed</tspan>
<tspan x="10" y="42"></tspan>
<tspan x="10" y="58">node_modules</tspan>
<tspan x="10" y="74">└─┬ minifier@0.8.1 </tspan>
<tspan x="10" y="90">  ├─┬ commander@2.9.0 </tspan>
<tspan x="10" y="106">  │ └── graceful-readlink@1.0.1 </tspan>
<tspan x="10" y="122">  ├── css-resolve-import@0.1.2 </tspan>
<tspan x="10" y="138">  ├── fmerge@1.2.0 </tspan>
<tspan x="10" y="154">  ├─┬ glob@7.1.1 </tspan>
<tspan x="10" y="170">  │ ├── fs.realpath@1.0.0 </tspan>
<tspan x="10" y="186">  │ ├─┬ inflight@1.0.6 </tspan>
<tspan x="10" y="202">  │ │ └── wrappy@1.0.2 </tspan>
<tspan x="10" y="218">  │ ├── inherits@2.0.3 </tspan>
<tspan x="10" y="234">  │ ├─┬ minimatch@3.0.3 </tspan>
<tspan x="10" y="250">  │ │ └─┬ brace-expansion@1.1.7 </tspan>
<tspan x="10" y="266">  │ │   ├── balanced-match@0.4.2 </tspan>
<tspan x="10" y="282">  │ │   └── concat-map@0.0.1 </tspan>
<tspan x="10" y="298">  │ ├── once@1.4.0 </tspan>
<tspan x="10" y="314">  │ └── path-is-absolute@1.0.1 </tspan>
<tspan x="10" y="330">  ├─┬ hogan.js@3.0.2 </tspan>
<tspan x="10" y="346">  │ ├── mkdirp@0.3.0 </tspan>
<tspan x="10" y="362">  │ └─┬ nopt@1.0.10 </tspan>
<tspan x="10" y="378">  │   └── abbrev@1.1.0 </tspan>
<tspan x="10" y="394">  ├── sqwish@0.2.2 </tspan>
<tspan x="10" y="410">  └─┬ uglify-js@2.8.22 </tspan>
<tspan x="10" y="426">    ├── source-map@0.5.6 </tspan>
<tspan x="10" y="442">    ├── uglify-to-browserify@1.0.2 </tspan>
<tspan x="10" y="458">    └─┬ yargs@3.10.0 </tspan>
<tspan x="10" y="474">      ├── camelcase@1.2.1 </tspan>
<tspan x="10" y="490">      ├─┬ cliui@2.1.0 </tspan>
<tspan x="10" y="506">      │ ├─┬ center-align@0.1.3 </tspan>
<tspan x="10" y="522">      │ │ ├─┬ align-text@0.1.4 </tspan>
<tspan x="10" y="538">      │ │ │ ├─┬ kind-of@3.1.0 </tspan>
<tspan x="10" y="554">      │ │ │ │ └── is-buffer@1.1.5 </tspan>
<tspan x="10" y="570">      │ │ │ ├── longest@1.0.1 </tspan>
<tspan x="10" y="586">      │ │ │ └── repeat-string@1.6.1 </tspan>
<tspan x="10" y="602">      │ │ └── lazy-cache@1.0.4 </tspan>
<tspan x="10" y="618">      │ ├── right-align@0.1.3 </tspan>
<tspan x="10" y="634">      │ └── wordwrap@0.0.2 </tspan>
<tspan x="10" y="650">      ├── decamelize@1.2.0 </tspan>
<tspan x="10" y="666">      └── window-size@0.1.0</tspan>
</text>
</svg>
